<svg width="30" height="44" viewBox="0 0 30 44" fill="none" xmlns="http://www.w3.org/2000/svg">
<path fill-rule="evenodd" clip-rule="evenodd" d="M10.4665 41.9997C9.93546 40.727 10.0844 37.818 10.0844 37.818L1.36361 38.727C1.36361 38.727 -0.260045 38.318 0.0360886 37.818C0.402958 37.1984 2.69097 36.1816 2.69097 36.1816L5.1564 35.4543L7.59726 34.8022L10.0844 34.0655V23.015L7.77535 22.909C7.77535 22.909 6.82714 22.7271 6.25821 22.5453L6.22621 22.5351C5.82822 22.4082 5.52362 22.3111 5.31 21.818C5.09068 21.3119 5.12035 20.909 5.12035 20.909C5.01369 20.28 5.17834 19.954 5.45816 19.4L5.49275 19.3314C5.97747 18.3694 6.62844 18.0126 7.59726 17.4897C8.92647 16.7722 11.4236 16.753 11.4236 16.753L12.3802 7.72833H8.38032C6.86318 7.72833 7.66688 6.52612 8.38032 5.99996C10.8457 4.18179 16.2066 1.65051 16.2066 1.65051C16.2066 1.65051 16.2066 -4.03721e-05 18.621 7.40633e-10C21.0354 4.03765e-05 20.033 1.65051 20.033 1.65051C20.033 1.65051 26.8272 0.144856 29.2163 2.75557C30.622 4.29157 29.8274 7.49311 29.2163 9.45449C27.9135 13.6363 22.3289 18.4105 22.3289 18.4105C22.3289 18.4105 25.3663 19.5923 26.7396 20.909C26.7846 20.9521 26.829 20.9946 26.8728 21.0365C28.121 22.2308 28.8819 22.9588 29.2163 25.2726C29.5843 27.818 28.0424 32.4093 24.0846 34.8022C19.2946 37.6983 13.4646 37.818 13.4646 37.818C13.4646 37.818 13.7195 43.9748 12.3628 43.9997C11.3079 44.0191 10.8643 42.9546 10.4902 42.0568L10.4665 41.9997ZM16.1557 16.5453C16.1557 16.5453 18.2417 8.18177 19.19 7.27267C20.1382 6.36358 22.5709 5.99021 23.7414 7.27267C24.6158 8.23079 24.2909 9.2864 23.9263 10.4709C23.8639 10.6737 23.8003 10.8803 23.7414 11.0908C22.7816 14.5197 16.1557 16.5453 16.1557 16.5453ZM15.3723 22.1817L14.0335 32.7271C14.0335 32.7271 20.8551 32.2395 22.7355 29.6362C23.6039 28.434 24.0408 27.5681 23.8512 26.1816C23.4275 23.0831 15.3723 22.1817 15.3723 22.1817Z" fill="#B9B1EE"/>
</svg>
