<svg width="210" height="106" viewBox="0 0 210 106" fill="none" xmlns="http://www.w3.org/2000/svg">
<g filter="url(#filter0_d_2_44)">
<path fill-rule="evenodd" clip-rule="evenodd" d="M51.7968 53.06C51.7968 53.06 48.67 55.2487 51.7968 48.9952C54.9237 42.7417 65.2431 32.1107 65.2431 32.1107C65.2431 32.1107 66.7317 31.6206 67.432 32.1107C68.4324 32.811 67.432 35.2375 67.432 35.2375C67.432 35.2375 65.1729 39.6878 64.305 42.7417C63.9933 43.8384 63.5799 44.8902 63.1804 45.9065C61.9878 48.9409 60.9195 51.6588 63.0542 54.3107C63.1713 54.4562 63.2678 54.6012 63.3595 54.7388C63.6068 55.1103 63.8187 55.4288 64.305 55.5614C64.8128 55.6999 65.1664 55.491 65.5674 55.254C65.7548 55.1433 65.9525 55.0264 66.1812 54.936C71.5919 52.7968 75.157 45.2654 76.7023 42.0009C77.0516 41.2632 77.2976 40.7433 77.4385 40.5529C78.2028 39.5201 78.5504 39.3971 79.1758 39.3971C79.8013 39.3971 80.7482 39.6284 81.191 41.1783C81.3542 41.7498 81.142 42.8303 80.9031 44.0469C80.494 46.1299 80.0065 48.6117 81.191 49.6205C81.3128 49.7243 81.4494 49.8488 81.5956 49.982C82.0999 50.4416 82.7186 51.0054 83.241 51.1839C83.9148 51.4142 84.5686 51.1839 85.5688 50.5586C86.0069 50.2847 88.4938 47.57 91.2414 44.5708C94.7673 40.7219 98.7224 36.4045 99.3277 36.1755C99.4923 36.1132 99.6377 36.0566 99.7688 36.0054C100.496 35.722 100.788 35.6082 101.517 35.6448C101.679 35.653 101.835 35.659 101.985 35.6647C102.95 35.7019 103.651 35.7288 104.192 36.2703C104.817 36.8957 105.756 38.1464 106.52 40.5529C107.284 42.9595 107.311 46.1688 106.52 49.6205C105.789 52.8121 104.461 54.7236 102.858 57.0295C102.428 57.6475 101.979 58.2939 101.517 59.0008C99.3277 62.3454 100.752 63.1604 100.752 63.1604C100.752 63.1604 101.378 63.4731 101.69 63.4731C102.003 63.4731 102.629 63.1604 103.254 62.8477C103.705 62.6223 116.349 47.2784 123.486 38.6183C126.246 35.268 128.183 32.918 128.27 32.8307C128.583 32.5181 130.148 31.5005 130.911 32.1107C131.864 32.8735 130.911 35.2375 130.911 35.2375C130.911 35.2375 128.409 42.2111 126.846 46.4938C125.282 50.7764 127.158 54.6233 127.158 54.6233C127.158 54.6233 127.645 55.3435 128.409 55.5614C129.173 55.7792 129.973 54.936 129.973 54.936C129.973 54.936 142.029 41.8983 142.342 41.5856C142.655 41.273 143.419 41.1783 143.419 41.1783C143.419 41.1783 143.983 41.1783 144.357 41.8036C144.731 42.429 144.982 48.9952 144.982 48.9952C144.982 48.9952 145.932 50.3315 146.859 50.5586C147.984 50.8344 149.673 49.6205 149.673 49.6205L163.745 33.9868C163.745 33.9868 164.692 33.5837 165.308 33.6741C166.013 33.7774 166.107 35.0195 166.107 35.0195C166.107 35.0195 165.447 43.8977 166.246 44.305C167.045 44.7124 176.114 35.0195 176.114 35.0195C176.114 35.0195 177.393 33.5753 178.129 33.6741C178.929 33.7813 179.063 33.9806 179.532 34.6742L179.554 34.7068C179.753 35.0027 179.572 37.2411 179.366 39.7821C179.071 43.4245 178.725 47.6887 179.38 47.7445C180.306 47.8233 185.017 43.0633 186.826 41.2358C187.189 40.8695 187.435 40.621 187.51 40.5529C187.962 40.1456 188.615 39.9611 189.386 39.9276C190.273 39.8891 190.774 40.1446 191.57 40.5505L191.575 40.5529C191.925 40.7315 192.99 42.5673 194.18 44.6209C195.706 47.2531 197.439 50.2429 198.142 50.5586C198.827 50.8663 199.178 50.7149 199.487 50.5818C199.743 50.4718 199.969 50.3743 200.331 50.5586C201.13 50.9659 201.311 53.5355 200.331 54.936C200.277 55.0123 200.228 55.0885 200.179 55.1626C199.957 55.5006 199.763 55.7964 199.393 55.874C198.941 55.9687 196.405 56.4047 194.39 55.874C193.386 55.6098 192.142 54.0043 190.875 52.3698C189.597 50.7217 188.296 49.044 187.197 48.6825C185.008 47.9625 183.306 50.5586 183.306 50.5586C183.306 50.5586 175.488 61.2842 173.126 61.8149C172.96 61.8521 172.803 61.9245 172.652 61.9939C172.262 62.1739 171.913 62.3344 171.562 61.8149C171.076 61.0948 171.111 58.7304 171.562 57.0723C171.96 55.6134 172.248 54.7525 172.431 54.2053C172.456 54.1306 172.479 54.0617 172.5 53.998C172.588 53.7345 172.7 53.2101 172.833 52.5873C172.968 51.9559 173.125 51.2233 173.3 50.5586C173.416 50.1162 173.521 49.7609 173.62 49.4233C173.773 48.9057 173.914 48.4294 174.064 47.7445C174.147 47.3631 174.292 46.9908 174.431 46.6321C174.773 45.7516 175.082 44.9534 174.377 44.305C173.652 43.639 172.952 43.585 171.875 43.9924C171.336 44.196 168.244 48.5498 165.152 52.9036C162.059 57.2574 158.967 61.6112 158.429 61.8149C157.352 62.2222 157.014 62.1763 156.24 61.8149C154.58 61.0403 156.24 57.1247 156.24 57.1247C156.24 57.1247 156.587 56.0634 157.039 55.0307C157.491 53.998 157.803 53.06 157.803 53.06L158.429 50.5586C158.429 50.5586 159.543 47.8689 158.429 47.1191C157.912 46.7716 157.039 47.2138 157.039 47.2138C157.039 47.2138 147.971 56.2814 146.859 57.1247C145.747 57.9681 143.61 57.9837 141.855 57.1247C140.161 56.2954 139.52 53.8591 139.125 52.3597C138.971 51.775 138.855 51.3328 138.728 51.1839C138.285 50.6624 137.681 51.0745 137.529 51.1787L137.521 51.1839C137.481 51.2114 136.737 52.0476 135.682 53.2336C133.103 56.1337 128.664 61.1255 128.096 61.5022C127.297 62.0329 125.223 62.6356 123.719 61.8149C122.73 61.2757 121.842 59.6261 121.842 59.6261C121.842 59.6261 121.214 58.3144 120.904 57.4374C119.882 54.5378 119.966 49.6205 119.966 49.6205C119.966 49.6205 104.192 66.287 103.706 67.1303C103.232 67.9507 103.44 68.8259 103.685 69.8573C103.692 69.8862 103.699 69.9153 103.706 69.9444C103.842 70.5211 104.093 70.9048 104.351 71.2999C104.569 71.6329 104.792 71.9741 104.956 72.4458C105.868 75.0618 105.515 76.8342 104.979 79.5254L104.956 79.6373C104.443 82.217 103.938 83.7188 102.455 85.8908C100.894 88.1763 99.4495 89.141 97.2484 90.6113C97.1107 90.7033 96.97 90.7972 96.8261 90.8936C94.2397 92.6267 91.2323 93.5844 90.4331 93.8024C89.6339 94.0204 86.9585 94.2384 85.5688 93.3951C84.1791 92.5517 83.241 89.7376 83.5537 87.8616C83.8664 85.9855 84.3786 84.5378 85.5688 82.7641C86.4831 81.4016 87.2299 80.4759 88.0497 79.46C88.5355 78.8578 89.0469 78.2239 89.6339 77.4486C90.1297 76.7938 90.571 76.2483 90.9872 75.7338C91.8085 74.7184 92.5324 73.8235 93.3864 72.4458C93.7444 71.8681 93.9792 71.3708 94.2075 70.8872C94.4932 70.2821 94.7686 69.6986 95.2626 69.0064C95.5022 68.6706 95.7419 68.4311 95.9736 68.1996C96.2776 67.8959 96.5679 67.606 96.8261 67.1303C97.5488 65.7992 97.1485 64.6369 96.7226 63.4002C96.3901 62.4346 96.0419 61.4236 96.2007 60.2515C96.4259 58.589 97.1721 57.456 97.9199 56.3205C98.6587 55.1987 99.3991 54.0744 99.6404 52.4346C99.6539 52.3435 99.6671 52.2539 99.6802 52.1656C99.9275 50.4987 100.102 49.3191 99.6404 47.7445C99.4934 47.2434 99.4191 46.8375 99.3573 46.5003C99.2148 45.7215 99.1391 45.3081 98.3896 44.9304C98.3715 44.9213 98.3535 44.9122 98.3357 44.9032C97.603 44.5333 97.1204 44.2896 96.2007 44.9304C95.8663 45.1634 94.3726 46.5695 92.5288 48.3051C89.1788 51.4586 84.6732 55.6999 83.8664 55.9687C83.6308 56.0472 83.3796 56.1371 83.1162 56.2314C81.981 56.6377 80.6201 57.1247 79.3147 57.1247C77.7065 57.1247 76.6742 56.4994 75.875 54.3107C75.4512 53.1499 75.5159 52.341 75.5563 51.8371C75.592 51.3908 75.6086 51.1839 75.2496 51.1839C74.6417 51.1839 73.4603 52.7659 72.7417 53.7283C72.5567 53.976 72.4023 54.1826 72.2963 54.3107C72.2526 54.3635 72.186 54.4453 72.0991 54.5522C71.1565 55.7105 67.8198 59.8111 65.2431 61.8149C62.4286 64.0035 59.3017 61.5022 59.3017 61.5022C59.3017 61.5022 58.2095 60.052 57.7382 59.0008C57.0718 57.5142 56.9383 56.5593 56.8001 54.936C56.7173 53.9627 56.8001 52.4346 56.8001 52.4346V49.6205C56.8001 49.6205 54.6112 51.4965 54.2985 51.8092C53.9858 52.1219 51.7968 53.06 51.7968 53.06ZM95.1238 75.6674C94.1856 76.2928 91.9643 78.8461 89.1824 83.797C89.1585 83.8394 89.1301 83.8897 89.0977 83.947C88.4794 85.0408 86.4084 88.7044 86.9934 89.4251C87.5536 90.1154 88.3389 90.3316 89.1823 90.0505C91.0585 89.4251 93.4796 87.2892 93.8728 86.9237C95.6619 85.2613 97.4004 82.7541 97.6253 81.9209C97.7734 81.3724 97.9727 80.7727 98.1767 80.1587C99.0252 77.6054 99.9558 74.8051 97.6253 74.4167C97.1435 74.3364 95.5302 75.3965 95.1238 75.6674Z" fill="#B9B1EE"/>
<path fill-rule="evenodd" clip-rule="evenodd" d="M18.2582 72.228C17.3827 70.0392 17.6283 65.0364 17.6283 65.0364L3.24847 66.5998C3.24847 66.5998 0.57121 65.8964 1.05951 65.0364C1.66444 63.9711 5.43715 62.2224 5.43715 62.2224L9.50242 60.9717L13.5272 59.8502L17.6283 58.5833V39.5794L13.8208 39.3971C13.8208 39.3971 12.2573 39.0844 11.3192 38.7717L11.2664 38.7542C10.6102 38.5359 10.1079 38.3689 9.75569 37.521C9.39406 36.6505 9.44299 35.9576 9.44299 35.9576C9.2671 34.876 9.5386 34.3154 9.99999 33.3626L10.057 33.2447C10.8563 31.5902 11.9297 30.9767 13.5272 30.0774C15.7189 28.8436 19.8365 28.8105 19.8365 28.8105L21.4139 13.2906H14.8184C12.3168 13.2906 13.642 11.2231 14.8184 10.3183C18.8835 7.19153 27.7232 2.83842 27.7232 2.83842C27.7232 2.83842 27.7232 -6.94288e-05 31.7044 1.27372e-09C35.6855 6.94364e-05 34.0326 2.83842 34.0326 2.83842C34.0326 2.83842 45.2356 0.249112 49.175 4.73881C51.4928 7.38032 50.1826 12.8861 49.175 16.2591C47.0268 23.4506 37.8182 31.6611 37.8182 31.6611C37.8182 31.6611 42.8266 33.6933 45.0912 35.9576C45.1653 36.0318 45.2385 36.1049 45.3107 36.1769C47.369 38.2309 48.6236 39.4829 49.175 43.4618C49.7817 47.8393 47.2393 55.7351 40.7133 59.8502C32.815 64.8307 23.2019 65.0364 23.2019 65.0364C23.2019 65.0364 23.6221 75.6246 21.3851 75.6674C19.6457 75.7007 18.9143 73.87 18.2974 72.326L18.2582 72.228ZM27.6392 28.4534C27.6392 28.4534 31.0789 14.0704 32.6425 12.507C34.206 10.9436 38.2174 10.3015 40.1473 12.507C41.5892 14.1547 41.0535 15.97 40.4523 18.0071C40.3494 18.3559 40.2445 18.7111 40.1473 19.0732C38.5647 24.9699 27.6392 28.4534 27.6392 28.4534ZM26.3474 38.1463L24.1399 56.2815C24.1399 56.2815 35.3881 55.443 38.4888 50.966C39.9207 48.8985 40.641 47.4095 40.3284 45.0252C39.6297 39.6966 26.3474 38.1463 26.3474 38.1463Z" fill="#B9B1EE"/>
<path d="M67.3506 8.28964V8.51477C67.1105 8.52227 66.9304 8.55229 66.8103 8.60482C66.6902 8.64985 66.6077 8.7399 66.5626 8.87497C66.5251 9.00254 66.5063 9.20516 66.5063 9.48281V15.0659C66.5063 15.3361 66.5251 15.5387 66.5626 15.6738C66.6077 15.8089 66.6902 15.8989 66.8103 15.9439C66.9304 15.989 67.1105 16.019 67.3506 16.034V16.2591C67.1405 16.2441 66.8741 16.2366 66.5514 16.2366C66.2362 16.2291 65.9134 16.2253 65.5832 16.2253C65.223 16.2253 64.8853 16.2291 64.5701 16.2366C64.2549 16.2366 63.9997 16.2441 63.8046 16.2591V16.034C64.0597 16.019 64.2511 15.989 64.3787 15.9439C64.5138 15.8989 64.6038 15.8089 64.6489 15.6738C64.6939 15.5387 64.7164 15.3361 64.7164 15.0659V8.97628H64.7952L62.0034 16.2704H61.8233L58.7838 9.0213V14.4131C58.7838 14.8258 58.8063 15.1447 58.8514 15.3699C58.8964 15.5875 58.9939 15.7451 59.1441 15.8426C59.3017 15.9327 59.5456 15.9965 59.8758 16.034V16.2591C59.7332 16.2441 59.5456 16.2366 59.3129 16.2366C59.0803 16.2291 58.8626 16.2253 58.66 16.2253C58.4874 16.2253 58.311 16.2291 58.1309 16.2366C57.9508 16.2366 57.8007 16.2441 57.6806 16.2591V16.034C57.9207 15.9965 58.1009 15.9327 58.221 15.8426C58.341 15.7526 58.4198 15.6062 58.4574 15.4036C58.5024 15.1935 58.5249 14.9084 58.5249 14.5482V9.48281C58.5249 9.20516 58.5024 9.00254 58.4574 8.87497C58.4198 8.7399 58.3373 8.64985 58.2097 8.60482C58.0896 8.55229 57.9132 8.52227 57.6806 8.51477V8.28964C57.8007 8.29715 57.9508 8.30465 58.1309 8.31216C58.311 8.31966 58.4874 8.32341 58.66 8.32341C58.9827 8.32341 59.2979 8.31966 59.6056 8.31216C59.9208 8.30465 60.1985 8.29715 60.4386 8.28964L62.8027 13.9966L62.5212 14.2555L64.784 8.32341C64.9115 8.32341 65.0429 8.32341 65.178 8.32341C65.3131 8.32341 65.4481 8.32341 65.5832 8.32341C65.9134 8.32341 66.2362 8.31966 66.5514 8.31216C66.8741 8.30465 67.1405 8.29715 67.3506 8.28964Z" fill="#B9B1EE"/>
<path d="M74.1248 8.28964C74.0948 8.61983 74.0723 8.93876 74.0573 9.24643C74.0498 9.5541 74.046 9.79049 74.046 9.95558C74.046 10.1057 74.0498 10.2482 74.0573 10.3833C74.0648 10.5184 74.0723 10.631 74.0798 10.721H73.8209C73.7458 10.1732 73.6295 9.74171 73.4719 9.42653C73.3143 9.10385 73.1079 8.87872 72.8527 8.75115C72.6051 8.61608 72.3124 8.54854 71.9747 8.54854H71.5131C71.2955 8.54854 71.1304 8.5673 71.0178 8.60482C70.9052 8.64234 70.8302 8.71738 70.7926 8.82995C70.7551 8.94251 70.7364 9.11511 70.7364 9.34774V15.201C70.7364 15.4336 70.7551 15.6062 70.7926 15.7188C70.8302 15.8314 70.9052 15.9064 71.0178 15.9439C71.1304 15.9815 71.2955 16.0002 71.5131 16.0002H72.0647C72.4024 16.0002 72.6989 15.9289 72.9541 15.7863C73.2167 15.6363 73.4381 15.3849 73.6182 15.0322C73.8059 14.6795 73.9484 14.203 74.046 13.6026H74.3049C74.2824 13.8428 74.2712 14.1579 74.2712 14.5482C74.2712 14.7207 74.2749 14.9646 74.2824 15.2798C74.2899 15.595 74.3124 15.9214 74.35 16.2591C73.9672 16.2441 73.5357 16.2366 73.0554 16.2366C72.5751 16.2291 72.1473 16.2253 71.772 16.2253C71.5844 16.2253 71.3443 16.2253 71.0516 16.2253C70.7589 16.2253 70.4437 16.2291 70.1059 16.2366C69.7682 16.2366 69.4268 16.2403 69.0815 16.2479C68.7363 16.2479 68.4098 16.2516 68.1021 16.2591V16.034C68.3423 16.019 68.5224 15.989 68.6425 15.9439C68.7626 15.8989 68.8414 15.8089 68.8789 15.6738C68.9239 15.5387 68.9464 15.3361 68.9464 15.0659V9.48281C68.9464 9.20516 68.9239 9.00254 68.8789 8.87497C68.8414 8.7399 68.7588 8.64985 68.6312 8.60482C68.5112 8.55229 68.3348 8.52227 68.1021 8.51477V8.28964C68.4098 8.29715 68.7363 8.30465 69.0815 8.31216C69.4268 8.31216 69.7682 8.31591 70.1059 8.32341C70.4437 8.32341 70.7589 8.32341 71.0516 8.32341C71.3443 8.32341 71.5844 8.32341 71.772 8.32341C72.1173 8.32341 72.5075 8.32341 72.9428 8.32341C73.3856 8.31591 73.7796 8.30465 74.1248 8.28964ZM72.3687 12.1393C72.3687 12.1393 72.3687 12.1768 72.3687 12.2519C72.3687 12.3269 72.3687 12.3644 72.3687 12.3644H70.3986C70.3986 12.3644 70.3986 12.3269 70.3986 12.2519C70.3986 12.1768 70.3986 12.1393 70.3986 12.1393H72.3687ZM72.6951 10.6535C72.6651 11.0812 72.6501 11.4076 72.6501 11.6328C72.6576 11.8579 72.6614 12.0643 72.6614 12.2519C72.6614 12.4395 72.6651 12.6458 72.6726 12.871C72.6801 13.0961 72.6989 13.4225 72.7289 13.8503H72.47C72.4325 13.5876 72.3612 13.3437 72.2561 13.1186C72.1585 12.8935 72.0159 12.7134 71.8283 12.5783C71.6407 12.4357 71.3968 12.3644 71.0966 12.3644V12.1393C71.3217 12.1393 71.5131 12.0943 71.6707 12.0042C71.8283 11.9067 71.9559 11.7829 72.0535 11.6328C72.1585 11.4752 72.2411 11.3101 72.3011 11.1375C72.3612 10.9649 72.4062 10.8036 72.4362 10.6535H72.6951Z" fill="#B9B1EE"/>
<path d="M81.1245 8.28964C81.0945 8.61983 81.072 8.93876 81.0569 9.24643C81.0494 9.5541 81.0457 9.79049 81.0457 9.95558C81.0457 10.1057 81.0494 10.2482 81.0569 10.3833C81.0645 10.5184 81.072 10.631 81.0795 10.721H80.8205C80.723 10.1732 80.5879 9.74171 80.4153 9.42653C80.2502 9.10385 80.0475 8.87872 79.8074 8.75115C79.5672 8.61608 79.2895 8.54854 78.9743 8.54854H78.6479C78.4227 8.54854 78.2539 8.5673 78.1413 8.60482C78.0362 8.64234 77.9649 8.71738 77.9274 8.82995C77.8899 8.93501 77.8711 9.1076 77.8711 9.34774V15.0659C77.8711 15.3211 77.8861 15.5199 77.9162 15.6625C77.9462 15.7976 78.0062 15.8952 78.0963 15.9552C78.1938 16.0077 78.3327 16.034 78.5128 16.034C78.888 16.034 79.177 15.9514 79.3796 15.7863C79.5822 15.6137 79.7248 15.3699 79.8074 15.0547C79.8899 14.7395 79.9312 14.368 79.9312 13.9403C79.9312 13.4976 79.8824 13.1111 79.7849 12.7809C79.6948 12.4507 79.5335 12.1956 79.3008 12.0155C79.0682 11.8279 78.7379 11.7341 78.3102 11.7341C78.2051 11.7341 78.0775 11.7341 77.9274 11.7341C77.7848 11.7341 77.6422 11.7378 77.4996 11.7453C77.3645 11.7453 77.2445 11.7453 77.1394 11.7453V11.5202C77.3946 11.5202 77.646 11.5202 77.8936 11.5202C78.1488 11.5127 78.3627 11.5089 78.5353 11.5089C79.1432 11.5089 79.6573 11.5765 80.0776 11.7116C80.4978 11.8466 80.8318 12.0267 81.0795 12.2519C81.3346 12.4695 81.5185 12.7209 81.6311 13.006C81.7436 13.2912 81.7999 13.5876 81.7999 13.8953C81.7999 14.218 81.7399 14.5219 81.6198 14.807C81.4997 15.0922 81.3084 15.3436 81.0457 15.5612C80.7905 15.7788 80.4603 15.9477 80.055 16.0678C79.6498 16.1878 79.162 16.2479 78.5916 16.2479C78.404 16.2479 78.1751 16.2441 77.9049 16.2366C77.6347 16.2291 77.2933 16.2253 76.8805 16.2253C76.6103 16.2253 76.3139 16.2291 75.9911 16.2366C75.6759 16.2366 75.4245 16.2441 75.2369 16.2591V16.034C75.4696 16.019 75.6459 15.989 75.766 15.9439C75.8936 15.8989 75.9761 15.8089 76.0137 15.6738C76.0587 15.5387 76.0812 15.3361 76.0812 15.0659V9.48281C76.0812 9.20516 76.0587 9.00254 76.0137 8.87497C75.9761 8.7399 75.8973 8.64985 75.7773 8.60482C75.6572 8.55229 75.4771 8.52227 75.2369 8.51477V8.28964C75.5446 8.29715 75.8711 8.30465 76.2163 8.31216C76.5615 8.31216 76.903 8.31591 77.2407 8.32341C77.5784 8.32341 77.8936 8.32341 78.1863 8.32341C78.479 8.32341 78.7192 8.32341 78.9068 8.32341C79.2295 8.32341 79.5973 8.32341 80.01 8.32341C80.4228 8.31591 80.7943 8.30465 81.1245 8.28964Z" fill="#B9B1EE"/>
<path d="M88.5592 8.28964C88.5292 8.61983 88.5067 8.93876 88.4917 9.24643C88.4842 9.5541 88.4804 9.79049 88.4804 9.95558C88.4804 10.1057 88.4842 10.2482 88.4917 10.3833C88.4992 10.5184 88.5067 10.631 88.5142 10.721H88.2553C88.1802 10.1732 88.0639 9.74171 87.9063 9.42653C87.7487 9.10385 87.5423 8.87872 87.2872 8.75115C87.0395 8.61608 86.7468 8.54854 86.4091 8.54854H85.9475C85.7299 8.54854 85.5648 8.5673 85.4522 8.60482C85.3397 8.64234 85.2646 8.71738 85.2271 8.82995C85.1896 8.94251 85.1708 9.11511 85.1708 9.34774V15.201C85.1708 15.4336 85.1896 15.6062 85.2271 15.7188C85.2646 15.8314 85.3397 15.9064 85.4522 15.9439C85.5648 15.9815 85.7299 16.0002 85.9475 16.0002H86.4992C86.8369 16.0002 87.1333 15.9289 87.3885 15.7863C87.6512 15.6363 87.8726 15.3849 88.0527 15.0322C88.2403 14.6795 88.3829 14.203 88.4804 13.6026H88.7394C88.7168 13.8428 88.7056 14.1579 88.7056 14.5482C88.7056 14.7207 88.7093 14.9646 88.7169 15.2798C88.7244 15.595 88.7469 15.9214 88.7844 16.2591C88.4016 16.2441 87.9701 16.2366 87.4898 16.2366C87.0095 16.2291 86.5817 16.2253 86.2065 16.2253C86.0188 16.2253 85.7787 16.2253 85.486 16.2253C85.1933 16.2253 84.8781 16.2291 84.5404 16.2366C84.2027 16.2366 83.8612 16.2403 83.516 16.2479C83.1707 16.2479 82.8443 16.2516 82.5366 16.2591V16.034C82.7767 16.019 82.9568 15.989 83.0769 15.9439C83.197 15.8989 83.2758 15.8089 83.3133 15.6738C83.3584 15.5387 83.3809 15.3361 83.3809 15.0659V9.48281C83.3809 9.20516 83.3584 9.00254 83.3133 8.87497C83.2758 8.7399 83.1933 8.64985 83.0657 8.60482C82.9456 8.55229 82.7692 8.52227 82.5366 8.51477V8.28964C82.8443 8.29715 83.1707 8.30465 83.516 8.31216C83.8612 8.31216 84.2027 8.31591 84.5404 8.32341C84.8781 8.32341 85.1933 8.32341 85.486 8.32341C85.7787 8.32341 86.0188 8.32341 86.2065 8.32341C86.5517 8.32341 86.9419 8.32341 87.3772 8.32341C87.82 8.31591 88.214 8.30465 88.5592 8.28964ZM86.8031 12.1393C86.8031 12.1393 86.8031 12.1768 86.8031 12.2519C86.8031 12.3269 86.8031 12.3644 86.8031 12.3644H84.8331C84.8331 12.3644 84.8331 12.3269 84.8331 12.2519C84.8331 12.1768 84.8331 12.1393 84.8331 12.1393H86.8031ZM87.1296 10.6535C87.0995 11.0812 87.0845 11.4076 87.0845 11.6328C87.092 11.8579 87.0958 12.0643 87.0958 12.2519C87.0958 12.4395 87.0995 12.6458 87.107 12.871C87.1146 13.0961 87.1333 13.4225 87.1633 13.8503H86.9044C86.8669 13.5876 86.7956 13.3437 86.6905 13.1186C86.593 12.8935 86.4504 12.7134 86.2628 12.5783C86.0751 12.4357 85.8312 12.3644 85.531 12.3644V12.1393C85.7562 12.1393 85.9475 12.0943 86.1051 12.0042C86.2627 11.9067 86.3903 11.7829 86.4879 11.6328C86.593 11.4752 86.6755 11.3101 86.7356 11.1375C86.7956 10.9649 86.8406 10.8036 86.8707 10.6535H87.1296Z" fill="#B9B1EE"/>
<path d="M97.0561 8.28964V8.51477C96.801 8.52227 96.6059 8.55229 96.4708 8.60482C96.3432 8.64985 96.2569 8.7399 96.2119 8.87497C96.1668 9.00254 96.1443 9.20516 96.1443 9.48281V15.0659C96.1443 15.3361 96.1668 15.5387 96.2119 15.6738C96.2569 15.8089 96.3432 15.8989 96.4708 15.9439C96.6059 15.989 96.801 16.019 97.0561 16.034V16.2591C96.8535 16.2441 96.5871 16.2366 96.2569 16.2366C95.9342 16.2291 95.5889 16.2253 95.2212 16.2253C94.8685 16.2253 94.5232 16.2291 94.1855 16.2366C93.8478 16.2366 93.5701 16.2441 93.3525 16.2591V16.034C93.6302 16.019 93.8403 15.989 93.9829 15.9439C94.133 15.8989 94.2306 15.8089 94.2756 15.6738C94.3281 15.5387 94.3544 15.3361 94.3544 15.0659V9.48281C94.3544 9.20516 94.3281 8.99879 94.2756 8.86372C94.2306 8.72864 94.148 8.63859 94.0279 8.59356C93.9154 8.54103 93.7653 8.51477 93.5776 8.51477H93.4988C93.3187 8.51477 93.1724 8.54103 93.0598 8.59356C92.9547 8.63859 92.8759 8.73239 92.8234 8.87497C92.7784 9.01005 92.7446 9.21266 92.7221 9.48281C92.6846 9.92556 92.647 10.4021 92.6095 10.9124C92.5795 11.4226 92.5382 11.9367 92.4857 12.4545C92.4331 12.9723 92.3581 13.4675 92.2605 13.9403C92.1705 14.4131 92.0466 14.8371 91.889 15.2123C91.7314 15.58 91.5288 15.8726 91.2811 16.0903C91.0335 16.3079 90.7295 16.4167 90.3693 16.4167C90.0316 16.4167 89.7389 16.3229 89.4912 16.1353C89.2511 15.9402 89.131 15.685 89.131 15.3699C89.131 15.0772 89.2286 14.8446 89.4237 14.672C89.6263 14.4994 89.8702 14.4131 90.1554 14.4131C90.4031 14.4131 90.6019 14.4769 90.752 14.6044C90.9096 14.7245 90.9884 14.8933 90.9884 15.111C90.9884 15.3736 90.9021 15.595 90.7295 15.7751C90.5644 15.9477 90.3505 16.0715 90.0879 16.1465C90.1254 16.1691 90.1667 16.1841 90.2117 16.1916C90.2642 16.1991 90.3168 16.2028 90.3693 16.2028C90.7145 16.2028 91.0035 16.0715 91.2361 15.8089C91.4688 15.5462 91.6564 15.1898 91.799 14.7395C91.9491 14.2818 92.0654 13.764 92.148 13.1861C92.2305 12.6083 92.2943 12.0042 92.3393 11.3739C92.3844 10.736 92.4256 10.1057 92.4632 9.48281C92.4857 9.22017 92.4744 9.0213 92.4294 8.88623C92.3919 8.75115 92.3018 8.65735 92.1592 8.60482C92.0241 8.55229 91.8215 8.52227 91.5513 8.51477V8.28964C91.7089 8.29715 91.8965 8.30465 92.1142 8.31216C92.3318 8.31966 92.5307 8.32341 92.7108 8.32341C92.8834 8.32341 93.0485 8.31966 93.2061 8.31216C93.3713 8.29715 93.5364 8.28964 93.7015 8.28964C93.9866 8.28964 94.2456 8.29715 94.4782 8.31216C94.7109 8.31966 94.9886 8.32341 95.3113 8.32341C95.4989 8.32341 95.7015 8.32341 95.9192 8.32341C96.1443 8.31591 96.3544 8.31216 96.5496 8.31216C96.7522 8.30465 96.9211 8.29715 97.0561 8.28964Z" fill="#B9B1EE"/>
<path d="M101.342 8.28964V8.51477C101.079 8.52227 100.881 8.55229 100.745 8.60482C100.61 8.64985 100.52 8.7399 100.475 8.87497C100.43 9.00254 100.408 9.20516 100.408 9.48281V15.0659C100.408 15.3211 100.423 15.5199 100.453 15.6625C100.483 15.7976 100.547 15.8952 100.644 15.9552C100.742 16.0077 100.881 16.034 101.061 16.034C101.428 16.034 101.714 15.9477 101.916 15.7751C102.119 15.6025 102.261 15.3624 102.344 15.0547C102.427 14.7395 102.468 14.368 102.468 13.9403C102.468 13.5126 102.419 13.1336 102.321 12.8034C102.231 12.4657 102.074 12.2031 101.849 12.0155C101.624 11.8279 101.305 11.7341 100.892 11.7341C100.757 11.7341 100.614 11.7341 100.464 11.7341C100.321 11.7341 100.179 11.7378 100.036 11.7453C99.9012 11.7453 99.7811 11.7453 99.676 11.7453V11.5202C99.9312 11.5202 100.183 11.5202 100.43 11.5202C100.685 11.5127 100.899 11.5089 101.072 11.5089C101.68 11.5089 102.194 11.569 102.614 11.689C103.034 11.8091 103.368 11.9742 103.616 12.1843C103.871 12.3944 104.055 12.6383 104.168 12.916C104.28 13.1861 104.337 13.475 104.337 13.7827C104.337 14.1054 104.277 14.4168 104.156 14.717C104.036 15.0172 103.845 15.2836 103.582 15.5162C103.327 15.7413 102.997 15.9214 102.592 16.0565C102.186 16.1841 101.699 16.2479 101.128 16.2479C100.956 16.2479 100.727 16.2441 100.442 16.2366C100.164 16.2291 99.8374 16.2253 99.4621 16.2253C99.1619 16.2253 98.8505 16.2291 98.5278 16.2366C98.2126 16.2366 97.9612 16.2441 97.7735 16.2591V16.034C98.0062 16.019 98.1825 15.989 98.3026 15.9439C98.4302 15.8989 98.5128 15.8089 98.5503 15.6738C98.5953 15.5387 98.6178 15.3361 98.6178 15.0659V9.48281C98.6178 9.20516 98.5953 9.00254 98.5503 8.87497C98.5128 8.7399 98.4302 8.64985 98.3026 8.60482C98.1825 8.55229 98.0062 8.52227 97.7735 8.51477V8.28964C97.9612 8.29715 98.2126 8.30465 98.5278 8.31216C98.8505 8.31966 99.192 8.32341 99.5522 8.32341C99.8824 8.32341 100.209 8.31966 100.532 8.31216C100.862 8.30465 101.132 8.29715 101.342 8.28964Z" fill="#B9B1EE"/>
<path d="M109.659 16.2591V16.034C109.9 16.019 110.08 15.989 110.2 15.9439C110.32 15.8989 110.399 15.8089 110.436 15.6738C110.481 15.5387 110.504 15.3361 110.504 15.0659V9.48281C110.504 9.20516 110.481 9.00254 110.436 8.87497C110.399 8.7399 110.316 8.64985 110.189 8.60482C110.068 8.55229 109.892 8.52227 109.659 8.51477V8.28964C109.862 8.29715 110.125 8.30465 110.447 8.31216C110.778 8.31966 111.104 8.32341 111.427 8.32341C111.772 8.32341 112.095 8.31966 112.395 8.31216C112.703 8.30465 112.95 8.29715 113.138 8.28964V8.51477C112.898 8.52227 112.714 8.55229 112.586 8.60482C112.466 8.64985 112.387 8.7399 112.35 8.87497C112.312 9.00254 112.294 9.20516 112.294 9.48281V15.0659C112.294 15.3361 112.312 15.5387 112.35 15.6738C112.395 15.8089 112.478 15.8989 112.598 15.9439C112.718 15.989 112.898 16.019 113.138 16.034V16.2591C112.95 16.2441 112.703 16.2366 112.395 16.2366C112.095 16.2291 111.772 16.2253 111.427 16.2253C111.104 16.2253 110.778 16.2291 110.447 16.2366C110.125 16.2366 109.862 16.2441 109.659 16.2591ZM104.886 16.2591V16.034C105.126 16.019 105.307 15.989 105.427 15.9439C105.547 15.8989 105.626 15.8089 105.663 15.6738C105.708 15.5387 105.731 15.3361 105.731 15.0659V9.48281C105.731 9.20516 105.708 9.00254 105.663 8.87497C105.626 8.7399 105.543 8.64985 105.415 8.60482C105.295 8.55229 105.119 8.52227 104.886 8.51477V8.28964C105.081 8.29715 105.333 8.30465 105.641 8.31216C105.956 8.31966 106.297 8.32341 106.665 8.32341C106.98 8.32341 107.292 8.31966 107.599 8.31216C107.907 8.30465 108.162 8.29715 108.365 8.28964V8.51477C108.125 8.52227 107.941 8.55229 107.813 8.60482C107.693 8.64985 107.614 8.7399 107.577 8.87497C107.539 9.00254 107.521 9.20516 107.521 9.48281V15.0659C107.521 15.3361 107.539 15.5387 107.577 15.6738C107.622 15.8089 107.704 15.8989 107.824 15.9439C107.945 15.989 108.125 16.019 108.365 16.034V16.2591C108.162 16.2441 107.907 16.2366 107.599 16.2366C107.292 16.2291 106.98 16.2253 106.665 16.2253C106.297 16.2253 105.956 16.2291 105.641 16.2366C105.333 16.2366 105.081 16.2441 104.886 16.2591ZM106.789 12.3644V12.1393H111.235V12.3644H106.789Z" fill="#B9B1EE"/>
<path d="M117.65 8.26713L120.385 15.3136C120.491 15.5837 120.607 15.7713 120.734 15.8764C120.87 15.9739 120.99 16.0265 121.095 16.034V16.2591C120.87 16.2441 120.603 16.2366 120.295 16.2366C119.995 16.2291 119.691 16.2253 119.384 16.2253C119.038 16.2253 118.712 16.2291 118.404 16.2366C118.096 16.2366 117.853 16.2441 117.672 16.2591V16.034C118.055 16.019 118.295 15.9552 118.393 15.8426C118.498 15.7226 118.475 15.4712 118.325 15.0885L116.412 9.85427L116.614 9.56161L114.903 14.0191C114.738 14.4318 114.637 14.7695 114.599 15.0322C114.569 15.2948 114.588 15.4974 114.655 15.64C114.731 15.7826 114.847 15.8839 115.004 15.9439C115.17 15.9965 115.365 16.0265 115.59 16.034V16.2591C115.342 16.2441 115.106 16.2366 114.881 16.2366C114.655 16.2291 114.427 16.2253 114.194 16.2253C114.029 16.2253 113.871 16.2291 113.721 16.2366C113.579 16.2366 113.451 16.2441 113.338 16.2591V16.034C113.496 16.004 113.657 15.9027 113.822 15.7301C113.988 15.5575 114.149 15.2648 114.306 14.8521L116.873 8.26713C116.993 8.27464 117.121 8.27839 117.256 8.27839C117.399 8.27839 117.53 8.27464 117.65 8.26713ZM118.438 13.0173V13.2424H115.083L115.196 13.0173H118.438Z" fill="#B9B1EE"/>
<path d="M128.491 8.28964V8.51477C128.25 8.52227 128.07 8.55229 127.95 8.60482C127.83 8.64985 127.748 8.7399 127.703 8.87497C127.665 9.00254 127.646 9.20516 127.646 9.48281V15.0659C127.646 15.3361 127.665 15.5387 127.703 15.6738C127.748 15.8089 127.83 15.8989 127.95 15.9439C128.07 15.989 128.25 16.019 128.491 16.034V16.2591C128.303 16.2441 128.048 16.2366 127.725 16.2366C127.41 16.2291 127.072 16.2253 126.712 16.2253C126.404 16.2253 126.093 16.2291 125.778 16.2366C125.462 16.2366 125.207 16.2441 125.012 16.2591V16.034C125.245 16.019 125.421 15.989 125.541 15.9439C125.669 15.8989 125.751 15.8089 125.789 15.6738C125.834 15.5387 125.856 15.3361 125.856 15.0659V9.48281C125.856 9.09259 125.811 8.8337 125.721 8.70613C125.639 8.57856 125.451 8.51477 125.158 8.51477C124.648 8.51477 124.288 8.67611 124.078 8.99879C123.868 9.32147 123.763 9.77172 123.763 10.3495C123.763 10.7022 123.804 11.0249 123.886 11.3176C123.969 11.6027 124.127 11.8316 124.359 12.0042C124.592 12.1693 124.93 12.2519 125.372 12.2519H126.34C126.34 12.2519 126.34 12.2894 126.34 12.3644C126.34 12.4395 126.34 12.477 126.34 12.477H125.26C124.592 12.477 124.04 12.417 123.605 12.2969C123.17 12.1768 122.824 12.0155 122.569 11.8129C122.322 11.6103 122.145 11.3814 122.04 11.1262C121.943 10.8711 121.894 10.6047 121.894 10.327C121.894 9.8993 122.006 9.53534 122.232 9.23517C122.464 8.9275 122.809 8.69487 123.267 8.53728C123.733 8.37969 124.314 8.3009 125.012 8.3009C125.155 8.3009 125.391 8.30465 125.721 8.31216C126.059 8.31966 126.412 8.32341 126.78 8.32341C127.095 8.32341 127.41 8.31966 127.725 8.31216C128.048 8.30465 128.303 8.29715 128.491 8.28964ZM126.273 12.2856L126.25 12.477H125.035C124.802 12.477 124.618 12.5483 124.483 12.6909C124.355 12.8259 124.254 13.0135 124.179 13.2537C124.104 13.4863 124.04 13.7602 123.988 14.0754L123.785 15.201C123.703 15.6663 123.53 15.9852 123.267 16.1578C123.005 16.3304 122.674 16.4167 122.277 16.4167C121.954 16.4167 121.676 16.3642 121.444 16.2591C121.211 16.1616 120.997 15.9965 120.802 15.7638L120.959 15.6288C121.035 15.7113 121.102 15.7751 121.162 15.8201C121.23 15.8576 121.312 15.8801 121.41 15.8877C121.552 15.8877 121.661 15.8276 121.736 15.7076C121.811 15.5875 121.879 15.3774 121.939 15.0772L122.175 13.9178C122.273 13.4375 122.494 13.0923 122.839 12.8822C123.185 12.6721 123.68 12.5258 124.325 12.4432C124.468 12.4207 124.611 12.4019 124.753 12.3869C124.896 12.3719 125.083 12.3569 125.316 12.3419C125.556 12.3194 125.875 12.3006 126.273 12.2856Z" fill="#B9B1EE"/>
<path d="M135.354 8.28964V8.51477C135.114 8.52227 134.93 8.55229 134.802 8.60482C134.682 8.64985 134.603 8.7399 134.566 8.87497C134.528 9.00254 134.51 9.20516 134.51 9.48281V15.0659C134.51 15.3361 134.528 15.5387 134.566 15.6738C134.611 15.8089 134.693 15.8989 134.813 15.9439C134.934 15.989 135.114 16.019 135.354 16.034V16.2591C135.151 16.2441 134.896 16.2366 134.588 16.2366C134.281 16.2291 133.969 16.2253 133.654 16.2253C133.294 16.2253 132.952 16.2291 132.63 16.2366C132.314 16.2366 132.063 16.2441 131.875 16.2591V16.034C132.115 16.019 132.296 15.989 132.416 15.9439C132.536 15.8989 132.615 15.8089 132.652 15.6738C132.697 15.5387 132.72 15.3361 132.72 15.0659V9.48281C132.72 9.20516 132.697 9.00254 132.652 8.87497C132.615 8.7399 132.532 8.64985 132.404 8.60482C132.284 8.55229 132.108 8.52227 131.875 8.51477V8.28964C132.063 8.29715 132.314 8.30465 132.63 8.31216C132.952 8.31966 133.294 8.32341 133.654 8.32341C133.969 8.32341 134.281 8.31966 134.588 8.31216C134.896 8.30465 135.151 8.29715 135.354 8.28964ZM134.836 12.0042C135.436 12.0042 135.958 12.0492 136.401 12.1393C136.851 12.2218 137.211 12.3757 137.481 12.6008C137.759 12.8184 137.947 13.1411 138.044 13.5689L138.371 15.0772C138.431 15.3849 138.498 15.5987 138.573 15.7188C138.648 15.8314 138.761 15.8877 138.911 15.8877C139.001 15.8801 139.076 15.8576 139.136 15.8201C139.204 15.7751 139.275 15.7113 139.35 15.6288L139.508 15.7638C139.305 15.989 139.087 16.1541 138.855 16.2591C138.622 16.3642 138.341 16.4167 138.011 16.4167C137.605 16.4167 137.271 16.3342 137.009 16.1691C136.746 15.9965 136.573 15.6738 136.491 15.201L136.187 13.4788C136.134 13.1786 136.056 12.9347 135.95 12.7471C135.853 12.5595 135.703 12.4207 135.5 12.3307C135.298 12.2406 135.016 12.1956 134.656 12.1956H134.217V12.0042H134.836ZM134.464 12.1956V12.0042C134.787 11.9967 135.08 11.9104 135.343 11.7453C135.605 11.5727 135.887 11.3101 136.187 10.9574L136.851 10.1582C137.144 9.8205 137.313 9.53159 137.358 9.29146C137.403 9.04382 137.354 8.85246 137.211 8.71738C137.069 8.58231 136.847 8.51102 136.547 8.50351V8.28964C136.727 8.29715 136.904 8.30465 137.076 8.31216C137.249 8.31216 137.425 8.31591 137.605 8.32341C137.785 8.32341 137.984 8.32341 138.202 8.32341C138.427 8.32341 138.626 8.31966 138.799 8.31216C138.979 8.30465 139.136 8.29715 139.271 8.28964V8.50351C139.024 8.55604 138.765 8.6611 138.495 8.81869C138.224 8.97628 137.935 9.23142 137.628 9.58412L135.399 12.1956H134.464Z" fill="#B9B1EE"/>
<path d="M143.877 8.13206C144.673 8.13206 145.367 8.2934 145.96 8.61608C146.56 8.93876 147.025 9.40402 147.356 10.0119C147.686 10.6122 147.851 11.3439 147.851 12.2068C147.851 13.0473 147.682 13.7827 147.344 14.4131C147.007 15.0434 146.534 15.535 145.926 15.8877C145.325 16.2403 144.639 16.4167 143.866 16.4167C143.07 16.4167 142.372 16.2554 141.772 15.9327C141.179 15.61 140.717 15.1447 140.387 14.5369C140.057 13.9291 139.892 13.1974 139.892 12.3419C139.892 11.5014 140.061 10.766 140.398 10.1357C140.744 9.50533 141.213 9.0138 141.806 8.6611C142.406 8.3084 143.096 8.13206 143.877 8.13206ZM143.832 8.33467C143.412 8.33467 143.044 8.50351 142.729 8.8412C142.421 9.17889 142.181 9.64415 142.008 10.237C141.843 10.8298 141.761 11.5165 141.761 12.2969C141.761 13.0923 141.854 13.7865 142.042 14.3793C142.237 14.9646 142.496 15.4186 142.819 15.7413C143.149 16.0565 143.513 16.2141 143.911 16.2141C144.331 16.2141 144.695 16.0452 145.003 15.7076C145.318 15.3699 145.558 14.9046 145.723 14.3118C145.896 13.7114 145.982 13.0248 145.982 12.2519C145.982 11.4489 145.885 10.7548 145.689 10.1694C145.502 9.58412 145.243 9.13387 144.913 8.81869C144.59 8.49601 144.23 8.33467 143.832 8.33467Z" fill="#B9B1EE"/>
<path d="M158.311 8.28964V8.51477C158.07 8.52227 157.89 8.55229 157.77 8.60482C157.65 8.64985 157.568 8.7399 157.523 8.87497C157.485 9.00254 157.466 9.20516 157.466 9.48281V15.0659C157.466 15.3361 157.485 15.5387 157.523 15.6738C157.568 15.8089 157.65 15.8989 157.77 15.9439C157.89 15.989 158.07 16.019 158.311 16.034V16.2591C158.101 16.2441 157.834 16.2366 157.511 16.2366C157.196 16.2291 156.873 16.2253 156.543 16.2253C156.183 16.2253 155.845 16.2291 155.53 16.2366C155.215 16.2366 154.96 16.2441 154.765 16.2591V16.034C155.02 16.019 155.211 15.989 155.339 15.9439C155.474 15.8989 155.564 15.8089 155.609 15.6738C155.654 15.5387 155.676 15.3361 155.676 15.0659V8.97628H155.755L152.963 16.2704H152.783L149.744 9.0213V14.4131C149.744 14.8258 149.766 15.1447 149.811 15.3699C149.856 15.5875 149.954 15.7451 150.104 15.8426C150.262 15.9327 150.506 15.9965 150.836 16.034V16.2591C150.693 16.2441 150.506 16.2366 150.273 16.2366C150.04 16.2291 149.823 16.2253 149.62 16.2253C149.447 16.2253 149.271 16.2291 149.091 16.2366C148.911 16.2366 148.761 16.2441 148.641 16.2591V16.034C148.881 15.9965 149.061 15.9327 149.181 15.8426C149.301 15.7526 149.38 15.6062 149.417 15.4036C149.462 15.1935 149.485 14.9084 149.485 14.5482V9.48281C149.485 9.20516 149.462 9.00254 149.417 8.87497C149.38 8.7399 149.297 8.64985 149.17 8.60482C149.05 8.55229 148.873 8.52227 148.641 8.51477V8.28964C148.761 8.29715 148.911 8.30465 149.091 8.31216C149.271 8.31966 149.447 8.32341 149.62 8.32341C149.943 8.32341 150.258 8.31966 150.566 8.31216C150.881 8.30465 151.158 8.29715 151.399 8.28964L153.763 13.9966L153.481 14.2555L155.744 8.32341C155.872 8.32341 156.003 8.32341 156.138 8.32341C156.273 8.32341 156.408 8.32341 156.543 8.32341C156.873 8.32341 157.196 8.31966 157.511 8.31216C157.834 8.30465 158.101 8.29715 158.311 8.28964Z" fill="#B9B1EE"/>
<path d="M167.314 8.28964V8.51477C167.074 8.52227 166.893 8.55229 166.773 8.60482C166.653 8.64985 166.571 8.7399 166.526 8.87497C166.488 9.00254 166.469 9.20516 166.469 9.48281V15.0659C166.469 15.3361 166.488 15.5387 166.526 15.6738C166.571 15.8089 166.653 15.8989 166.773 15.9439C166.893 15.989 167.074 16.019 167.314 16.034V16.2591C167.119 16.2441 166.863 16.2366 166.548 16.2366C166.233 16.2291 165.895 16.2253 165.535 16.2253C165.22 16.2253 164.905 16.2291 164.59 16.2366C164.282 16.2366 164.03 16.2441 163.835 16.2591V16.034C164.068 16.019 164.244 15.989 164.364 15.9439C164.492 15.8989 164.574 15.8089 164.612 15.6738C164.657 15.5387 164.68 15.3361 164.68 15.0659V9.48281C164.68 9.20516 164.657 8.99879 164.612 8.86372C164.567 8.72864 164.477 8.63859 164.342 8.59356C164.214 8.54103 164.023 8.51477 163.768 8.51477H162.608C162.353 8.51477 162.158 8.54103 162.023 8.59356C161.895 8.63859 161.809 8.72864 161.764 8.86372C161.719 8.99879 161.696 9.20516 161.696 9.48281V15.0659C161.696 15.3361 161.715 15.5387 161.753 15.6738C161.798 15.8089 161.88 15.8989 162 15.9439C162.12 15.989 162.301 16.019 162.541 16.034V16.2591C162.338 16.2441 162.083 16.2366 161.775 16.2366C161.467 16.2291 161.156 16.2253 160.841 16.2253C160.473 16.2253 160.132 16.2291 159.816 16.2366C159.509 16.2366 159.257 16.2441 159.062 16.2591V16.034C159.295 16.019 159.471 15.989 159.591 15.9439C159.719 15.8989 159.801 15.8089 159.839 15.6738C159.884 15.5387 159.906 15.3361 159.906 15.0659V9.48281C159.906 9.20516 159.884 9.00254 159.839 8.87497C159.801 8.7399 159.719 8.64985 159.591 8.60482C159.471 8.55229 159.295 8.52227 159.062 8.51477V8.28964C159.257 8.29715 159.509 8.30465 159.816 8.31216C160.132 8.31966 160.473 8.32341 160.841 8.32341C161.284 8.32341 161.723 8.31966 162.158 8.31216C162.593 8.29715 162.942 8.28964 163.205 8.28964C163.468 8.28964 163.813 8.29715 164.241 8.31216C164.668 8.31966 165.1 8.32341 165.535 8.32341C165.895 8.32341 166.233 8.31966 166.548 8.31216C166.863 8.30465 167.119 8.29715 167.314 8.28964Z" fill="#B9B1EE"/>
<path d="M171.826 8.26713L174.561 15.3136C174.666 15.5837 174.783 15.7713 174.91 15.8764C175.045 15.9739 175.165 16.0265 175.27 16.034V16.2591C175.045 16.2441 174.779 16.2366 174.471 16.2366C174.171 16.2291 173.867 16.2253 173.559 16.2253C173.214 16.2253 172.888 16.2291 172.58 16.2366C172.272 16.2366 172.028 16.2441 171.848 16.2591V16.034C172.231 16.019 172.471 15.9552 172.569 15.8426C172.674 15.7226 172.651 15.4712 172.501 15.0885L170.587 9.85427L170.79 9.56161L169.079 14.0191C168.914 14.4318 168.813 14.7695 168.775 15.0322C168.745 15.2948 168.764 15.4974 168.831 15.64C168.906 15.7826 169.023 15.8839 169.18 15.9439C169.345 15.9965 169.541 16.0265 169.766 16.034V16.2591C169.518 16.2441 169.282 16.2366 169.056 16.2366C168.831 16.2291 168.602 16.2253 168.37 16.2253C168.205 16.2253 168.047 16.2291 167.897 16.2366C167.754 16.2366 167.627 16.2441 167.514 16.2591V16.034C167.672 16.004 167.833 15.9027 167.998 15.7301C168.163 15.5575 168.325 15.2648 168.482 14.8521L171.049 8.26713C171.169 8.27464 171.297 8.27839 171.432 8.27839C171.574 8.27839 171.706 8.27464 171.826 8.26713ZM172.614 13.0173V13.2424H169.259L169.372 13.0173H172.614Z" fill="#B9B1EE"/>
<path d="M180.347 16.2591V16.034C180.588 16.019 180.768 15.989 180.888 15.9439C181.008 15.8989 181.087 15.8089 181.124 15.6738C181.169 15.5387 181.192 15.3361 181.192 15.0659V9.48281C181.192 9.20516 181.169 9.00254 181.124 8.87497C181.087 8.7399 181.004 8.64985 180.877 8.60482C180.756 8.55229 180.58 8.52227 180.347 8.51477V8.28964C180.55 8.29715 180.813 8.30465 181.135 8.31216C181.466 8.31966 181.792 8.32341 182.115 8.32341C182.46 8.32341 182.783 8.31966 183.083 8.31216C183.391 8.30465 183.638 8.29715 183.826 8.28964V8.51477C183.586 8.52227 183.402 8.55229 183.274 8.60482C183.154 8.64985 183.075 8.7399 183.038 8.87497C183 9.00254 182.982 9.20516 182.982 9.48281V15.0659C182.982 15.3361 183 15.5387 183.038 15.6738C183.083 15.8089 183.166 15.8989 183.286 15.9439C183.406 15.989 183.586 16.019 183.826 16.034V16.2591C183.638 16.2441 183.391 16.2366 183.083 16.2366C182.783 16.2291 182.46 16.2253 182.115 16.2253C181.792 16.2253 181.466 16.2291 181.135 16.2366C180.813 16.2366 180.55 16.2441 180.347 16.2591ZM175.574 16.2591V16.034C175.815 16.019 175.995 15.989 176.115 15.9439C176.235 15.8989 176.314 15.8089 176.351 15.6738C176.396 15.5387 176.419 15.3361 176.419 15.0659V9.48281C176.419 9.20516 176.396 9.00254 176.351 8.87497C176.314 8.7399 176.231 8.64985 176.103 8.60482C175.983 8.55229 175.807 8.52227 175.574 8.51477V8.28964C175.769 8.29715 176.021 8.30465 176.329 8.31216C176.644 8.31966 176.985 8.32341 177.353 8.32341C177.668 8.32341 177.98 8.31966 178.287 8.31216C178.595 8.30465 178.85 8.29715 179.053 8.28964V8.51477C178.813 8.52227 178.629 8.55229 178.501 8.60482C178.381 8.64985 178.302 8.7399 178.265 8.87497C178.227 9.00254 178.209 9.20516 178.209 9.48281V15.0659C178.209 15.3361 178.227 15.5387 178.265 15.6738C178.31 15.8089 178.392 15.8989 178.513 15.9439C178.633 15.989 178.813 16.019 179.053 16.034V16.2591C178.85 16.2441 178.595 16.2366 178.287 16.2366C177.98 16.2291 177.668 16.2253 177.353 16.2253C176.985 16.2253 176.644 16.2291 176.329 16.2366C176.021 16.2366 175.769 16.2441 175.574 16.2591ZM177.477 12.3644V12.1393H181.923V12.3644H177.477Z" fill="#B9B1EE"/>
<path d="M188.057 8.28964V8.51477C187.816 8.52227 187.636 8.55229 187.516 8.60482C187.396 8.64985 187.314 8.7399 187.269 8.87497C187.231 9.00254 187.212 9.20516 187.212 9.48281V15.0659C187.212 15.3361 187.231 15.5387 187.269 15.6738C187.314 15.8089 187.396 15.8989 187.516 15.9439C187.636 15.989 187.816 16.019 188.057 16.034V16.2591C187.854 16.2441 187.599 16.2366 187.291 16.2366C186.983 16.2291 186.672 16.2253 186.357 16.2253C185.989 16.2253 185.647 16.2291 185.332 16.2366C185.025 16.2366 184.773 16.2441 184.578 16.2591V16.034C184.811 16.019 184.987 15.989 185.107 15.9439C185.235 15.8989 185.317 15.8089 185.355 15.6738C185.4 15.5387 185.422 15.3361 185.422 15.0659V9.48281C185.422 9.20516 185.4 9.00254 185.355 8.87497C185.317 8.7399 185.235 8.64985 185.107 8.60482C184.987 8.55229 184.811 8.52227 184.578 8.51477V8.28964C184.773 8.29715 185.025 8.30465 185.332 8.31216C185.647 8.31966 185.989 8.32341 186.357 8.32341C186.672 8.32341 186.983 8.31966 187.291 8.31216C187.599 8.30465 187.854 8.29715 188.057 8.28964ZM190.646 8.90874C190.646 8.90874 190.646 8.95001 190.646 9.03256C190.646 9.1076 190.646 9.1864 190.646 9.26894C190.653 9.35149 190.657 9.39276 190.657 9.39276L186.897 15.7526L186.796 15.4374L190.646 8.90874ZM193.055 8.28964V8.51477C192.815 8.52227 192.635 8.55229 192.514 8.60482C192.394 8.64985 192.312 8.7399 192.267 8.87497C192.229 9.00254 192.21 9.20516 192.21 9.48281V15.0659C192.21 15.3361 192.229 15.5387 192.267 15.6738C192.312 15.8089 192.394 15.8989 192.514 15.9439C192.635 15.989 192.815 16.019 193.055 16.034V16.2591C192.86 16.2441 192.604 16.2366 192.289 16.2366C191.974 16.2291 191.636 16.2253 191.276 16.2253C190.961 16.2253 190.646 16.2291 190.331 16.2366C190.023 16.2366 189.771 16.2441 189.576 16.2591V16.034C189.809 16.019 189.985 15.989 190.105 15.9439C190.225 15.8989 190.308 15.8089 190.353 15.6738C190.398 15.5387 190.421 15.3361 190.421 15.0659V9.48281C190.421 9.20516 190.398 9.00254 190.353 8.87497C190.308 8.7399 190.225 8.64985 190.105 8.60482C189.985 8.55229 189.809 8.52227 189.576 8.51477V8.28964C189.771 8.29715 190.023 8.30465 190.331 8.31216C190.646 8.31966 190.961 8.32341 191.276 8.32341C191.636 8.32341 191.974 8.31966 192.289 8.31216C192.604 8.30465 192.86 8.29715 193.055 8.28964Z" fill="#B9B1EE"/>
<path d="M200.905 8.28964V8.51477C200.664 8.52227 200.484 8.55229 200.364 8.60482C200.244 8.64985 200.162 8.7399 200.117 8.87497C200.079 9.00254 200.06 9.20516 200.06 9.48281V15.0659C200.06 15.3361 200.079 15.5387 200.117 15.6738C200.162 15.8089 200.244 15.8989 200.364 15.9439C200.484 15.989 200.664 16.019 200.905 16.034V16.2591C200.717 16.2441 200.462 16.2366 200.139 16.2366C199.824 16.2291 199.486 16.2253 199.126 16.2253C198.818 16.2253 198.507 16.2291 198.192 16.2366C197.876 16.2366 197.621 16.2441 197.426 16.2591V16.034C197.659 16.019 197.835 15.989 197.955 15.9439C198.083 15.8989 198.165 15.8089 198.203 15.6738C198.248 15.5387 198.27 15.3361 198.27 15.0659V9.48281C198.27 9.09259 198.225 8.8337 198.135 8.70613C198.053 8.57856 197.865 8.51477 197.572 8.51477C197.062 8.51477 196.702 8.67611 196.492 8.99879C196.282 9.32147 196.177 9.77172 196.177 10.3495C196.177 10.7022 196.218 11.0249 196.3 11.3176C196.383 11.6027 196.541 11.8316 196.773 12.0042C197.006 12.1693 197.344 12.2519 197.786 12.2519H198.755C198.755 12.2519 198.755 12.2894 198.755 12.3644C198.755 12.4395 198.755 12.477 198.755 12.477H197.674C197.006 12.477 196.454 12.417 196.019 12.2969C195.584 12.1768 195.238 12.0155 194.983 11.8129C194.736 11.6103 194.559 11.3814 194.454 11.1262C194.357 10.8711 194.308 10.6047 194.308 10.327C194.308 9.8993 194.42 9.53534 194.646 9.23517C194.878 8.9275 195.223 8.69487 195.681 8.53728C196.147 8.37969 196.728 8.3009 197.426 8.3009C197.569 8.3009 197.805 8.30465 198.135 8.31216C198.473 8.31966 198.826 8.32341 199.194 8.32341C199.509 8.32341 199.824 8.31966 200.139 8.31216C200.462 8.30465 200.717 8.29715 200.905 8.28964ZM198.687 12.2856L198.664 12.477H197.449C197.216 12.477 197.032 12.5483 196.897 12.6909C196.769 12.8259 196.668 13.0135 196.593 13.2537C196.518 13.4863 196.454 13.7602 196.402 14.0754L196.199 15.201C196.117 15.6663 195.944 15.9852 195.681 16.1578C195.419 16.3304 195.088 16.4167 194.691 16.4167C194.368 16.4167 194.09 16.3642 193.858 16.2591C193.625 16.1616 193.411 15.9965 193.216 15.7638L193.374 15.6288C193.449 15.7113 193.516 15.7751 193.576 15.8201C193.644 15.8576 193.726 15.8801 193.824 15.8877C193.966 15.8877 194.075 15.8276 194.15 15.7076C194.225 15.5875 194.293 15.3774 194.353 15.0772L194.589 13.9178C194.687 13.4375 194.908 13.0923 195.253 12.8822C195.599 12.6721 196.094 12.5258 196.739 12.4432C196.882 12.4207 197.025 12.4019 197.167 12.3869C197.31 12.3719 197.497 12.3569 197.73 12.3419C197.97 12.3194 198.289 12.3006 198.687 12.2856Z" fill="#B9B1EE"/>
</g>
<defs>
<filter id="filter0_d_2_44" x="0" y="0" width="210" height="106" filterUnits="userSpaceOnUse" color-interpolation-filters="sRGB">
<feFlood flood-opacity="0" result="BackgroundImageFix"/>
<feColorMatrix in="SourceAlpha" type="matrix" values="0 0 0 0 0 0 0 0 0 0 0 0 0 0 0 0 0 0 127 0" result="hardAlpha"/>
<feOffset dx="4" dy="7"/>
<feGaussianBlur stdDeviation="2.5"/>
<feComposite in2="hardAlpha" operator="out"/>
<feColorMatrix type="matrix" values="0 0 0 0 0 0 0 0 0 0 0 0 0 0 0 0 0 0 0.25 0"/>
<feBlend mode="normal" in2="BackgroundImageFix" result="effect1_dropShadow_2_44"/>
<feBlend mode="normal" in="SourceGraphic" in2="effect1_dropShadow_2_44" result="shape"/>
</filter>
</defs>
</svg>
