<svg width="85" height="83" viewBox="0 0 85 83" fill="none" xmlns="http://www.w3.org/2000/svg">
<ellipse cx="46.151" cy="30.0506" rx="3.4135" ry="3.67416" fill="white"/>
<ellipse cx="55.2538" cy="30.0506" rx="3.4135" ry="3.67416" fill="white"/>
<g filter="url(#filter0_d_642_39)">
<ellipse cx="64.3564" cy="30.0506" rx="3.4135" ry="3.67416" fill="white"/>
</g>
<path d="M41.8388 53.3749L47.935 55.0818C50.2726 55.7363 51.1153 58.6142 49.5 60.4263L48.1589 61.7961C47.1938 62.7819 48.181 64.4041 49.5 64L57.8395 61.8672C61.5631 60.915 65.0764 59.2764 68.199 57.0357C70.3105 55.5205 72.2225 53.745 73.8896 51.7512L76.122 49.0814L76.2602 48.883C78.265 46.0058 79.8321 42.8474 80.9103 39.5106L81.3351 38.1962C82.7586 33.7911 83.131 29.114 82.4227 24.5392L82.2898 23.6813C81.6988 19.8643 80.2594 16.2284 78.0775 13.0411L77.6631 12.4358C75.2758 8.94842 71.9811 6.1794 68.1349 4.42773C66.0564 3.4811 63.8494 2.84659 61.5855 2.54473L57.5 2H54.9112C53.3067 2 51.7052 2.13822 50.1245 2.41313L49.0445 2.60096C43.8213 3.50934 39.0306 6.07886 35.3844 9.92759C33.1502 12.2859 31.4046 15.0629 30.2482 18.0986L29.9178 18.9657C28.6499 22.294 28 25.8256 28 29.3872V30.6577C28 33.2096 28.313 35.7519 28.9319 38.2276L29.1548 39.1193C29.3846 40.0385 29.683 40.9391 30.0474 41.8137C31.3266 44.8838 33.3908 47.5635 36.0328 49.5839L39.3956 52.1555C40.1252 52.7134 40.9544 53.1272 41.8388 53.3749Z" stroke="white" stroke-width="2.5" stroke-linecap="round" stroke-linejoin="round"/>
<path d="M45.7266 65.8221L42.5039 63.9432C40.747 62.9189 38.5107 63.2816 37.1676 64.8088L37.1015 64.884C36.7932 65.2345 36.5536 65.6398 36.395 66.0789C35.6223 68.2187 33.1288 69.1722 31.1255 68.0941L30.3769 67.6912L25.8256 64.6294C23.2021 63.0158 20.961 60.8507 19.258 58.2843L18.9986 57.8934L18.1931 56.8096C17.2186 55.4986 16.4495 54.0469 15.9121 52.5043L15.2841 50.7017C15.1067 50.1927 15.0162 49.6575 15.0162 49.1184C15.0162 47.6939 15.6472 46.3426 16.7395 45.4282L18.6777 43.8056C19.6022 43.0316 20.1364 41.8878 20.1364 40.682C20.1364 39.9241 19.925 39.1813 19.5259 38.537L13.9145 29.477C13.5206 28.8411 12.941 28.3415 12.254 28.0457C11.1358 27.5643 9.85119 27.6717 8.8285 28.3322L6.64156 29.7445C5.41802 30.5347 4.41711 31.6249 3.73414 32.9114L3.39712 33.5462C2.80327 34.6648 2.40179 35.8753 2.20949 37.1271L1.97873 38.6293C1.34196 42.7743 2.0068 47.0147 3.88158 50.766L5.9135 54.8316L10.3434 62.1021C11.1135 63.3659 11.9725 64.5734 12.9141 65.7152C14.4994 67.638 16.3094 69.3638 18.3054 70.8558L21.8432 73.5002L30.3047 78.5972C31.1098 79.0821 31.9567 79.494 32.8353 79.8277L35.1506 80.7073C38.8937 82.1293 43.1089 81.4777 46.2479 78.9918L46.6407 78.6807C47.2108 78.2293 47.7149 77.7004 48.1386 77.1094C50.8179 73.3713 49.6997 68.1386 45.7266 65.8221Z" stroke="#FDFDFD" stroke-width="2.5" stroke-linecap="round" stroke-linejoin="round"/>
<defs>
<filter id="filter0_d_642_39" x="60.9429" y="26.3765" width="7.82703" height="10.3481" filterUnits="userSpaceOnUse" color-interpolation-filters="sRGB">
<feFlood flood-opacity="0" result="BackgroundImageFix"/>
<feColorMatrix in="SourceAlpha" type="matrix" values="0 0 0 0 0 0 0 0 0 0 0 0 0 0 0 0 0 0 127 0" result="hardAlpha"/>
<feOffset dx="1" dy="3"/>
<feComposite in2="hardAlpha" operator="out"/>
<feColorMatrix type="matrix" values="0 0 0 0 0.817448 0 0 0 0 0.633386 0 0 0 0 0.160084 0 0 0 1 0"/>
<feBlend mode="normal" in2="BackgroundImageFix" result="effect1_dropShadow_642_39"/>
<feBlend mode="normal" in="SourceGraphic" in2="effect1_dropShadow_642_39" result="shape"/>
</filter>
</defs>
</svg>
