<svg width="80" height="80" viewBox="0 0 80 80" fill="none" xmlns="http://www.w3.org/2000/svg">
<path d="M80 40C80 62.0914 62.0914 80 40 80C17.9086 80 0 62.0914 0 40C0 17.9086 17.9086 0 40 0C62.0914 0 80 17.9086 80 40ZM2.8 40C2.8 60.545 19.455 77.2 40 77.2C60.545 77.2 77.2 60.545 77.2 40C77.2 19.455 60.545 2.8 40 2.8C19.455 2.8 2.8 19.455 2.8 40Z" fill="white"/>
<path d="M18.4999 41.5L21.5922 38.8495C21.8628 38.6176 22.1013 38.3504 22.3012 38.0552L24.7777 34.3978C24.8367 34.3108 24.9089 34.2337 24.9918 34.1692L29.6098 30.5775C29.6476 30.548 29.6876 30.5213 29.7293 30.4976L30.3963 30.1183C33.3477 28.4397 35.5252 25.6731 36.4634 22.41L36.9107 20.8541C37.169 19.9558 37.3 19.0257 37.3 18.091V17.7232C37.3 16.9554 38.1295 16.474 38.7962 16.8549L39.6026 17.3158C40.3863 17.7636 41.0391 18.4125 41.416 19.2325C42.0666 20.6477 42.9991 23.0511 42.9995 25.2C42.9998 27.267 42.1368 29.4124 41.4919 30.7271C41.1836 31.3556 41.5349 32.1476 42.2212 32.2854L56.8651 35.2258C57.1521 35.2834 57.3273 35.5754 57.2432 35.8557L56.2651 39.1164C55.9915 40.0282 56.3715 41.0094 57.1878 41.4992L57.6832 41.7965C59.4223 42.8399 59.6957 45.2503 58.2345 46.6568L57.4853 47.3778C56.6265 48.2044 56.7674 49.6167 57.7725 50.2574V50.2574C59.4341 51.3167 59.5831 53.6872 58.067 54.9461L57.5101 55.4085C57.4428 55.4645 57.4132 55.554 57.434 55.6391L58.3153 59.2469C58.4076 59.6248 58.2723 60.022 57.9685 60.265L55.9973 61.8421C55.8678 61.9456 55.7146 62.0154 55.5514 62.0451L50.022 63.0504C49.963 63.0611 49.9031 63.0665 49.8432 63.0665H43H36.0661L28.1765 62.0145C28.1035 62.0048 28.0318 61.987 27.9627 61.9615L24.1 60.5369C24.0335 60.5124 23.9646 60.495 23.8944 60.485L19.5333 59.8665" stroke="white" stroke-width="3" stroke-linecap="round"/>
</svg>
